<svg id="レイヤー_1" data-name="レイヤー 1" xmlns="http://www.w3.org/2000/svg" viewBox="0 0 162.27 114.63"><defs><style>.cls-1,.cls-2{fill:none;stroke:#3c230d;stroke-miterlimit:10;}.cls-1{stroke-width:4.86px;}.cls-2{stroke-width:5px;}.cls-3{fill:#3c230d;}</style></defs><path class="cls-1" d="M177.31,265.18s-7.38-19.24,4.1-49.34c0,0-15.7-18.4,1.18-37.27s40.1-2.56,38.94-2.85,35.16-18.78,65,1.65c0,0,20-14.26,37.3,2.77,0,0,18.76,17.88,0,40.21,0,0,9.74,10.38,3.35,44.83" transform="translate(-172.34 -165.35)"/><path d="M0,111.31" transform="translate(-172.34 -165.35)"/><path class="cls-2" d="M280.69,235.43c0-11.85-12.18-21.45-27.22-21.45s-27.22,9.6-27.22,21.45,11.23,16.17,26.27,16.17S280.69,247.27,280.69,235.43Z" transform="translate(-172.34 -165.35)"/><ellipse class="cls-3" cx="81.13" cy="60.23" rx="5.91" ry="4.39"/><path class="cls-3" d="M266,261.23c-4.88,0-10.16,4.73-12.5,7.1-2.34-2.37-7.62-7.1-12.5-7.1-5.87,0-9.37,3.5-9.37,9.37S235.1,280,241,280c4.88,0,10.16-4.73,12.5-7.1,2.34,2.37,7.62,7.1,12.5,7.1,5.87,0,9.37-3.51,9.37-9.38S271.84,261.23,266,261.23Zm-25,15.62c-4.14,0-6.25-2.1-6.25-6.25s2.11-6.25,6.25-6.25c3.44,0,8,3.88,10.36,6.25C249,273,244.42,276.85,241,276.85Zm25,0c-3.44,0-8-3.87-10.36-6.25,2.35-2.37,6.91-6.25,10.36-6.25,4.15,0,6.25,2.11,6.25,6.25S270.12,276.85,266,276.85Z" transform="translate(-172.34 -165.35)"/></svg>