{
    "asset" : {
        "generator" : "Khronos glTF Blender I/O v1.1.46",
        "version" : "2.0"
    },
    "scene" : 0,
    "scenes" : [
        {
            "name" : "Scene",
            "nodes" : [
                0,
                1,
                2,
                3
            ]
        }
    ],
    "nodes" : [
        {
            "mesh" : 0,
            "name" : "Sphere.014",
            "scale" : [
                0.1499999761581421,
                0.1499999761581421,
                0.1499999761581421
            ],
            "translation" : [
                0.3237895965576172,
                -0.10622689127922058,
                0.8958456516265869
            ]
        },
        {
            "mesh" : 1,
            "name" : "Sphere.013",
            "rotation" : [
                0.7071067690849304,
                0,
                0,
                0.7071067690849304
            ],
            "scale" : [
                0.3500000238418579,
                0.17500001192092896,
                0.3500000238418579
            ],
            "translation" : [
                -0.8234068155288696,
                0.37783083319664,
                0
            ]
        },
        {
            "mesh" : 2,
            "name" : "Sphere.011",
            "scale" : [
                0.15999998152256012,
                0.13599999248981476,
                0.15999998152256012
            ],
            "translation" : [
                0.024730682373046875,
                -0.4781278073787689,
                1.2092176675796509
            ]
        },
        {
            "mesh" : 3,
            "name" : "Sphere.008",
            "rotation" : [
                -0.15609388053417206,
                0.003012723522260785,
                -0.5402703285217285,
                0.8268818259239197
            ],
            "scale" : [
                0.3500000238418579,
                0.3500000238418579,
                0.10500001162290573
            ],
            "translation" : [
                -0.8595095872879028,
                -2.5109808444976807,
                1.8299486637115479
            ]
        }
    ],
    "materials" : [
        {
            "doubleSided" : true,
            "name" : "Material.012",
            "pbrMetallicRoughness" : {}
        },
        {
            "doubleSided" : true,
            "name" : "Material.015",
            "pbrMetallicRoughness" : {}
        },
        {
            "doubleSided" : true,
            "name" : "Material.013",
            "pbrMetallicRoughness" : {}
        },
        {
            "doubleSided" : true,
            "name" : "Material.014",
            "pbrMetallicRoughness" : {}
        }
    ],
    "meshes" : [
        {
            "name" : "Sphere.014",
            "primitives" : [
                {
                    "attributes" : {
                        "POSITION" : 0,
                        "NORMAL" : 1
                    },
                    "indices" : 2,
                    "material" : 0
                }
            ]
        },
        {
            "name" : "Sphere.013",
            "primitives" : [
                {
                    "attributes" : {
                        "POSITION" : 3,
                        "NORMAL" : 4
                    },
                    "indices" : 5,
                    "material" : 1
                }
            ]
        },
        {
            "name" : "Sphere.011",
            "primitives" : [
                {
                    "attributes" : {
                        "POSITION" : 6,
                        "NORMAL" : 7
                    },
                    "indices" : 8,
                    "material" : 2
                }
            ]
        },
        {
            "name" : "Sphere.008",
            "primitives" : [
                {
                    "attributes" : {
                        "POSITION" : 9,
                        "NORMAL" : 10
                    },
                    "indices" : 11,
                    "material" : 3
                }
            ]
        }
    ],
    "accessors" : [
        {
            "bufferView" : 0,
            "componentType" : 5126,
            "count" : 15876,
            "max" : [
                0.9880269765853882,
                0.998428463935852,
                0.9880270957946777
            ],
            "min" : [
                -4.963520050048828,
                -0.9984285235404968,
                -0.9880266785621643
            ],
            "type" : "VEC3"
        },
        {
            "bufferView" : 1,
            "componentType" : 5126,
            "count" : 15876,
            "type" : "VEC3"
        },
        {
            "bufferView" : 2,
            "componentType" : 5123,
            "count" : 95232,
            "type" : "SCALAR"
        },
        {
            "bufferView" : 3,
            "componentType" : 5126,
            "count" : 63504,
            "max" : [
                7.436097621917725,
                10.893424034118652,
                10.172688484191895
            ],
            "min" : [
                -2.7437832355499268,
                -7.057332992553711,
                -0.9880266785621643
            ],
            "type" : "VEC3"
        },
        {
            "bufferView" : 4,
            "componentType" : 5126,
            "count" : 63504,
            "type" : "VEC3"
        },
        {
            "bufferView" : 5,
            "componentType" : 5123,
            "count" : 380928,
            "type" : "SCALAR"
        },
        {
            "bufferView" : 6,
            "componentType" : 5126,
            "count" : 482,
            "max" : [
                1,
                1.000000238418579,
                0.9999995231628418
            ],
            "min" : [
                -1,
                -0.9999997615814209,
                -1.0000008344650269
            ],
            "type" : "VEC3"
        },
        {
            "bufferView" : 7,
            "componentType" : 5126,
            "count" : 482,
            "type" : "VEC3"
        },
        {
            "bufferView" : 8,
            "componentType" : 5123,
            "count" : 2880,
            "type" : "SCALAR"
        },
        {
            "bufferView" : 9,
            "componentType" : 5126,
            "count" : 39690,
            "max" : [
                3.1628427505493164,
                7.922262191772461,
                5.1245036125183105
            ],
            "min" : [
                -5.283871650695801,
                -1.3872582912445068,
                -6.467406272888184
            ],
            "type" : "VEC3"
        },
        {
            "bufferView" : 10,
            "componentType" : 5126,
            "count" : 39690,
            "type" : "VEC3"
        },
        {
            "bufferView" : 11,
            "componentType" : 5123,
            "count" : 238080,
            "type" : "SCALAR"
        }
    ],
    "bufferViews" : [
        {
            "buffer" : 0,
            "byteLength" : 190512,
            "byteOffset" : 0
        },
        {
            "buffer" : 0,
            "byteLength" : 190512,
            "byteOffset" : 190512
        },
        {
            "buffer" : 0,
            "byteLength" : 190464,
            "byteOffset" : 381024
        },
        {
            "buffer" : 0,
            "byteLength" : 762048,
            "byteOffset" : 571488
        },
        {
            "buffer" : 0,
            "byteLength" : 762048,
            "byteOffset" : 1333536
        },
        {
            "buffer" : 0,
            "byteLength" : 761856,
            "byteOffset" : 2095584
        },
        {
            "buffer" : 0,
            "byteLength" : 5784,
            "byteOffset" : 2857440
        },
        {
            "buffer" : 0,
            "byteLength" : 5784,
            "byteOffset" : 2863224
        },
        {
            "buffer" : 0,
            "byteLength" : 5760,
            "byteOffset" : 2869008
        },
        {
            "buffer" : 0,
            "byteLength" : 476280,
            "byteOffset" : 2874768
        },
        {
            "buffer" : 0,
            "byteLength" : 476280,
            "byteOffset" : 3351048
        },
        {
            "buffer" : 0,
            "byteLength" : 476160,
            "byteOffset" : 3827328
        }
    ],
    "buffers" : [
        {
            "byteLength" : 4303488,
            "uri" : "Bear.bin"
        }
    ]
}
